<svg width="50" height="50" viewBox="0 0 50 50" fill="none" xmlns="http://www.w3.org/2000/svg">
<path d="M49.5 25C49.5 38.531 38.531 49.5 25 49.5C11.469 49.5 0.5 38.531 0.5 25C0.5 11.469 11.469 0.5 25 0.5C38.531 0.5 49.5 11.469 49.5 25ZM28.625 15.625C28.625 13.623 27.002 12 25 12C22.998 12 21.375 13.623 21.375 15.625V21.375H15.625C13.623 21.375 12 22.998 12 25C12 27.002 13.623 28.625 15.625 28.625H21.375V34.375C21.375 36.377 22.998 38 25 38C27.002 38 28.625 36.377 28.625 34.375V28.625H34.375C36.377 28.625 38 27.002 38 25C38 22.998 36.377 21.375 34.375 21.375H28.625V15.625Z" fill="white" stroke="black"/>
</svg>
